<svg width="600" height="599" viewBox="0 0 600 599" fill="none" xmlns="http://www.w3.org/2000/svg">
<circle cx="263.525" cy="299.5" r="243.5" fill="#FFD43B" stroke="black" stroke-width="4"/>
<path d="M500.025 242.5C360.025 336.5 126.358 281.667 27.025 242.5H26.733C29.7061 230.104 33.6272 218.077 38.4154 206.5L38.525 206.879C140.82 244.54 353.221 290.682 488.808 209L489.652 209C493.981 219.806 497.557 230.994 500.317 242.5H500.025Z" fill="white"/>
<path d="M27.025 242.5L27.7586 240.639L27.4051 240.5H27.025V242.5ZM500.025 242.5V240.5H499.416L498.91 240.84L500.025 242.5ZM38.525 206.879L36.6037 207.434C36.7803 208.046 37.2371 208.536 37.834 208.756L38.525 206.879ZM488.808 209L488.808 207L488.252 207L487.776 207.287L488.808 209ZM26.733 242.5L24.7882 242.034L24.1966 244.5H26.733V242.5ZM38.4154 206.5L40.3368 205.945L38.7507 200.457L36.5673 205.736L38.4154 206.5ZM489.652 209L491.509 208.256L491.006 207L489.652 207L489.652 209ZM500.317 242.5V244.5H502.853L502.262 242.034L500.317 242.5ZM26.2914 244.361C76.117 264.007 159.562 287.56 248.12 294.432C336.632 301.3 430.591 291.529 501.14 244.16L498.91 240.84C429.459 287.471 336.585 297.284 248.43 290.443C160.321 283.607 77.2664 260.16 27.7586 240.639L26.2914 244.361ZM37.834 208.756C89.1238 227.639 167.983 248.639 251.037 254.688C334.054 260.734 421.536 251.862 489.84 210.713L487.776 207.287C420.493 247.82 333.982 256.718 251.327 250.699C168.711 244.682 90.2211 223.78 39.216 205.002L37.834 208.756ZM28.6779 242.966C31.6263 230.673 35.515 218.746 40.2636 207.264L36.5673 205.736C31.7394 217.409 27.7858 229.535 24.7882 242.034L28.6779 242.966ZM27.025 240.5H26.733V244.5H27.025V240.5ZM40.4464 206.324L40.3368 205.945L36.4941 207.055L36.6037 207.434L40.4464 206.324ZM487.796 209.744C492.088 220.46 495.635 231.556 498.372 242.966L502.262 242.034C499.479 230.432 495.873 219.151 491.509 208.256L487.796 209.744ZM488.808 211L489.652 211L489.652 207L488.808 207L488.808 211ZM500.025 244.5H500.317V240.5H500.025V244.5Z" fill="black"/>
<path d="M173.026 73.3728C83.3578 109.292 18.526 165.5 20.0255 299.5C21.525 433.5 127.025 501.5 127.025 501.5C127.025 501.5 70.0255 449 70.0255 297C70.0255 145 173.026 73.3728 173.026 73.3728Z" fill="#403526" fill-opacity="0.06"/>
<path d="M500.025 242.5C377.127 325.017 146.025 286 69.025 257.255C69.025 257.255 87.2245 341.271 125.025 388C164.303 436.555 201.525 451.5 268.025 457C434.457 470.765 523.525 435 566.025 394.5C577.858 381.167 589.784 363.957 566.025 334C543.025 305 516.525 251.833 500.025 242.5Z" fill="#00A92F" stroke="black" stroke-width="4"/>
<path d="M125.025 388C87.2245 341.271 69.025 257.255 69.025 257.255C89.2836 264.818 106.209 270.416 143.025 277L194.025 400.5C194.025 400.5 216.525 446 264.525 456C203.025 451.5 164.303 436.555 125.025 388Z" fill="#3A7049" fill-opacity="0.22"/>
<path d="M110.025 422C111.825 423.61 115.681 425.974 121.025 427.348M135.525 428C130 428.863 125.084 428.391 121.025 427.348M121.025 427.348C119.358 448.065 134.725 491.6 209.525 500" stroke="black" stroke-width="4" stroke-linecap="round" stroke-linejoin="round"/>
</svg>
